<svg width="280" height="235" viewBox="0 0 280 235" fill="none" xmlns="http://www.w3.org/2000/svg">
<rect width="279.45" height="234.519" rx="17.5341" fill="#F6F9F2"/>
<path d="M19.2691 52.8354V35.8865H21.5836L28.4548 46.8804H27.1287L33.9758 35.8865H36.2903V52.8354H33.0356V41.504L33.6624 41.6969L28.8887 49.3637H26.6707L21.897 41.6969L22.548 41.504V52.8354H19.2691ZM44.7433 53.0765C43.5218 53.0765 42.4368 52.8194 41.4885 52.305C40.5402 51.7746 39.7848 51.0514 39.2223 50.1352C38.6758 49.219 38.4025 48.1743 38.4025 47.001C38.4025 45.8437 38.6677 44.8151 39.1981 43.915C39.7446 42.9988 40.484 42.2755 41.4162 41.7451C42.3484 41.1986 43.3851 40.9254 44.5263 40.9254C45.6514 40.9254 46.6399 41.1826 47.4918 41.6969C48.3597 42.1952 49.0348 42.8863 49.517 43.7703C50.0152 44.6382 50.2644 45.6267 50.2644 46.7358C50.2644 46.9447 50.2483 47.1617 50.2161 47.3867C50.2001 47.5957 50.1599 47.8368 50.0956 48.11L40.3072 48.1341V45.7714L48.6249 45.7473L47.3471 46.7358C47.315 46.0446 47.1864 45.466 46.9614 44.9999C46.7524 44.5338 46.439 44.1802 46.0211 43.9391C45.6193 43.6819 45.121 43.5533 44.5263 43.5533C43.8995 43.5533 43.353 43.698 42.8869 43.9873C42.4208 44.2605 42.0591 44.6543 41.802 45.1687C41.5609 45.6669 41.4403 46.2616 41.4403 46.9528C41.4403 47.66 41.5689 48.2788 41.8261 48.8092C42.0993 49.3235 42.4851 49.7253 42.9833 50.0146C43.4816 50.2879 44.0602 50.4245 44.7192 50.4245C45.3139 50.4245 45.8523 50.3281 46.3345 50.1352C46.8167 49.9262 47.2346 49.6209 47.5882 49.219L49.4446 51.0755C48.8821 51.7345 48.191 52.2327 47.3712 52.5702C46.5676 52.9078 45.6916 53.0765 44.7433 53.0765ZM51.9765 52.8354V41.1906H55.1348V52.8354H51.9765ZM59.571 52.8354V45.9643C59.571 45.2892 59.354 44.7668 58.92 44.3972C58.5021 44.0114 57.9798 43.8185 57.3529 43.8185C56.935 43.8185 56.5573 43.9069 56.2198 44.0837C55.8822 44.2445 55.617 44.4856 55.4242 44.807C55.2313 45.1285 55.1348 45.5142 55.1348 45.9643L53.9053 45.3615C53.9053 44.4614 54.0981 43.6819 54.4839 43.0229C54.8857 42.3639 55.4242 41.8576 56.0992 41.504C56.7743 41.1343 57.5377 40.9495 58.3896 40.9495C59.1933 40.9495 59.9246 41.1343 60.5836 41.504C61.2426 41.8576 61.7649 42.3639 62.1507 43.0229C62.5364 43.6658 62.7293 44.4454 62.7293 45.3615V52.8354H59.571ZM67.1654 52.8354V45.9643C67.1654 45.2892 66.9485 44.7668 66.5145 44.3972C66.0966 44.0114 65.5742 43.8185 64.9474 43.8185C64.5455 43.8185 64.1678 43.9069 63.8142 44.0837C63.4767 44.2445 63.2115 44.4856 63.0186 44.807C62.8257 45.1285 62.7293 45.5142 62.7293 45.9643L60.9211 45.5303C60.9854 44.5981 61.2345 43.7944 61.6685 43.1194C62.1025 42.4282 62.6731 41.8978 63.3803 41.5281C64.0875 41.1424 64.875 40.9495 65.743 40.9495C66.6109 40.9495 67.3905 41.1343 68.0816 41.504C68.7727 41.8576 69.3192 42.372 69.721 43.047C70.1229 43.7221 70.3238 44.5257 70.3238 45.458V52.8354H67.1654ZM78.1156 53.0765C76.9423 53.0765 75.8815 52.8113 74.9332 52.2809C74.001 51.7345 73.2536 51.0031 72.691 50.087C72.1445 49.1547 71.8713 48.118 71.8713 46.9769C71.8713 45.8357 72.1445 44.8151 72.691 43.915C73.2375 42.9988 73.9849 42.2755 74.9332 41.7451C75.8815 41.1986 76.9343 40.9254 78.0915 40.9254C79.2809 40.9254 80.3417 41.1986 81.274 41.7451C82.2223 42.2755 82.9697 42.9988 83.5161 43.915C84.0626 44.8151 84.3359 45.8357 84.3359 46.9769C84.3359 48.118 84.0626 49.1547 83.5161 50.087C82.9697 51.0031 82.2223 51.7345 81.274 52.2809C80.3417 52.8113 79.289 53.0765 78.1156 53.0765ZM78.0915 50.1352C78.6862 50.1352 79.2086 50.0066 79.6586 49.7494C80.1247 49.4762 80.4784 49.1065 80.7194 48.6404C80.9766 48.1582 81.1052 47.6117 81.1052 47.001C81.1052 46.3902 80.9766 45.8518 80.7194 45.3856C80.4623 44.9195 80.1087 44.5579 79.6586 44.3007C79.2086 44.0275 78.6862 43.8909 78.0915 43.8909C77.5129 43.8909 76.9986 44.0275 76.5485 44.3007C76.0985 44.5579 75.7449 44.9195 75.4877 45.3856C75.2305 45.8518 75.102 46.3902 75.102 47.001C75.102 47.6117 75.2305 48.1582 75.4877 48.6404C75.7449 49.1065 76.0985 49.4762 76.5485 49.7494C76.9986 50.0066 77.5129 50.1352 78.0915 50.1352ZM86.1281 52.8354V41.1906H89.2864V52.8354H86.1281ZM89.2864 46.3982L88.0568 45.5785C88.2015 44.148 88.6194 43.0229 89.3105 42.2032C90.0016 41.3674 90.9982 40.9495 92.3001 40.9495C92.8626 40.9495 93.3689 41.0459 93.819 41.2388C94.269 41.4156 94.6789 41.713 95.0485 42.1309L93.0716 44.3972C92.8948 44.2043 92.6778 44.0596 92.4206 43.9632C92.1795 43.8667 91.8982 43.8185 91.5768 43.8185C90.9017 43.8185 90.3472 44.0355 89.9132 44.4695C89.4953 44.8874 89.2864 45.5303 89.2864 46.3982ZM99.4638 52.9319L94.5937 41.1906H98.0172L101.248 50.1593H100.091L103.442 41.1906H106.889L101.706 52.9319H99.4638ZM96.2331 57.7056L99.7772 50.2075L101.706 52.9319L99.5843 57.7056H96.2331Z" fill="black"/>
<path d="M249.421 59.4597L244.549 54.5748C244.177 54.211 243.99 53.7879 243.99 53.3058C243.99 52.8239 244.172 52.3967 244.536 52.0241C244.9 51.6519 245.327 51.468 245.818 51.4723C246.309 51.4767 246.736 51.6607 247.099 52.0241L248.928 53.8526V26.8583C248.928 26.3396 249.101 25.9145 249.446 25.5832C249.792 25.2515 250.228 25.0857 250.755 25.0857C251.274 25.0857 251.706 25.2607 252.051 25.6106C252.397 25.9602 252.569 26.3944 252.569 26.9131V53.8811L254.426 52.0241C254.799 51.6519 255.226 51.4658 255.708 51.4658C256.19 51.4658 256.617 51.6519 256.99 52.0241C257.353 52.3967 257.535 52.8239 257.535 53.3058C257.535 53.7879 257.353 54.211 256.99 54.5748L252.105 59.4597C251.732 59.8319 251.285 60.018 250.763 60.018C250.241 60.018 249.793 59.8319 249.421 59.4597Z" fill="#A5C686"/>
<path d="M229.534 40.625L226.625 37.7157V32.75H228.875V36.7843L231.125 39.0343L229.534 40.625Z" fill="#374B3C"/>
<path d="M227.75 46.25C225.97 46.25 224.23 45.7222 222.75 44.7332C221.27 43.7443 220.116 42.3387 219.435 40.6942C218.754 39.0496 218.576 37.24 218.923 35.4942C219.27 33.7484 220.127 32.1447 221.386 30.886C222.645 29.6274 224.248 28.7702 225.994 28.4229C227.74 28.0757 229.55 28.2539 231.194 28.9351C232.839 29.6163 234.244 30.7698 235.233 32.2499C236.222 33.7299 236.75 35.47 236.75 37.25C236.747 39.636 235.798 41.9235 234.111 43.6107C232.423 45.2979 230.136 46.247 227.75 46.25ZM227.75 30.5C226.415 30.5 225.11 30.8959 224 31.6376C222.89 32.3793 222.025 33.4335 221.514 34.6669C221.003 35.9003 220.869 37.2575 221.13 38.5669C221.39 39.8762 222.033 41.079 222.977 42.023C223.921 42.967 225.124 43.6099 226.433 43.8703C227.743 44.1308 229.1 43.9971 230.333 43.4862C231.567 42.9753 232.621 42.1101 233.362 41.0001C234.104 39.8901 234.5 38.585 234.5 37.25C234.498 35.4604 233.786 33.7448 232.521 32.4793C231.255 31.2139 229.54 30.5021 227.75 30.5Z" fill="#374B3C"/>
<path d="M212.709 46.25L220.584 53H236.75V50.75H221.416L213.541 44H207.5V28.25H205.25V57.5C205.251 58.0965 205.488 58.6682 205.91 59.09C206.332 59.5118 206.904 59.7491 207.5 59.75H236.75V57.5H207.5V46.25H212.709Z" fill="#374B3C"/>
<rect x="17.5332" y="78.9036" width="244.382" height="3.28765" rx="1.64382" fill="#374B3C"/>
<path d="M19.2691 126.26V109.311H22.548V126.26H19.2691ZM21.68 119.316V116.399H30.2148V119.316H21.68ZM21.68 112.204V109.311H30.6246V112.204H21.68ZM37.7013 126.501C36.528 126.501 35.4672 126.235 34.5188 125.705C33.5866 125.159 32.8392 124.427 32.2767 123.511C31.7302 122.579 31.457 121.542 31.457 120.401C31.457 119.26 31.7302 118.239 32.2767 117.339C32.8232 116.423 33.5705 115.7 34.5188 115.169C35.4672 114.623 36.5199 114.349 37.6772 114.349C38.8666 114.349 39.9274 114.623 40.8596 115.169C41.8079 115.7 42.5553 116.423 43.1018 117.339C43.6483 118.239 43.9215 119.26 43.9215 120.401C43.9215 121.542 43.6483 122.579 43.1018 123.511C42.5553 124.427 41.8079 125.159 40.8596 125.705C39.9274 126.235 38.8746 126.501 37.7013 126.501ZM37.6772 123.559C38.2719 123.559 38.7943 123.431 39.2443 123.174C39.7104 122.9 40.064 122.531 40.3051 122.064C40.5623 121.582 40.6909 121.036 40.6909 120.425C40.6909 119.814 40.5623 119.276 40.3051 118.81C40.0479 118.344 39.6943 117.982 39.2443 117.725C38.7943 117.452 38.2719 117.315 37.6772 117.315C37.0986 117.315 36.5842 117.452 36.1342 117.725C35.6841 117.982 35.3305 118.344 35.0734 118.81C34.8162 119.276 34.6876 119.814 34.6876 120.425C34.6876 121.036 34.8162 121.582 35.0734 122.064C35.3305 122.531 35.6841 122.9 36.1342 123.174C36.5842 123.431 37.0986 123.559 37.6772 123.559ZM51.2107 126.501C50.0213 126.501 48.9524 126.235 48.0041 125.705C47.0558 125.175 46.3084 124.451 45.7619 123.535C45.2155 122.619 44.9422 121.59 44.9422 120.449C44.9422 119.292 45.2155 118.255 45.7619 117.339C46.3084 116.423 47.0558 115.7 48.0041 115.169C48.9685 114.623 50.0373 114.349 51.2107 114.349C52.1268 114.349 52.9706 114.518 53.7421 114.856C54.5137 115.193 55.1807 115.675 55.7432 116.302L53.718 118.352C53.4127 118.014 53.043 117.757 52.609 117.58C52.1911 117.403 51.725 117.315 51.2107 117.315C50.632 117.315 50.1097 117.452 49.6435 117.725C49.1935 117.982 48.8319 118.344 48.5586 118.81C48.3015 119.26 48.1729 119.798 48.1729 120.425C48.1729 121.036 48.3015 121.582 48.5586 122.064C48.8319 122.531 49.1935 122.9 49.6435 123.174C50.1097 123.431 50.632 123.559 51.2107 123.559C51.7411 123.559 52.2152 123.471 52.6331 123.294C53.0671 123.101 53.4368 122.828 53.7421 122.474L55.7914 124.524C55.1967 125.167 54.5137 125.657 53.7421 125.994C52.9706 126.332 52.1268 126.501 51.2107 126.501ZM62.3055 126.501C61.2768 126.501 60.3607 126.284 59.557 125.85C58.7695 125.416 58.1507 124.813 57.7006 124.041C57.2506 123.27 57.0255 122.378 57.0255 121.365V114.615H60.208V121.293C60.208 121.775 60.2884 122.193 60.4491 122.547C60.6098 122.884 60.8509 123.141 61.1724 123.318C61.4938 123.495 61.8715 123.583 62.3055 123.583C62.9645 123.583 63.4788 123.382 63.8485 122.981C64.2182 122.579 64.403 122.016 64.403 121.293V114.615H67.5614V121.365C67.5614 122.394 67.3363 123.294 66.8863 124.066C66.4523 124.837 65.8335 125.44 65.0299 125.874C64.2423 126.292 63.3342 126.501 62.3055 126.501ZM73.8375 126.525C73.1785 126.525 72.5276 126.436 71.8847 126.26C71.2578 126.083 70.6792 125.842 70.1488 125.536C69.6184 125.215 69.1603 124.829 68.7746 124.379L70.6551 122.474C71.0569 122.924 71.523 123.262 72.0534 123.487C72.5838 123.712 73.1705 123.824 73.8134 123.824C74.3278 123.824 74.7135 123.752 74.9707 123.607C75.2439 123.463 75.3805 123.246 75.3805 122.957C75.3805 122.635 75.2359 122.386 74.9466 122.209C74.6733 122.032 74.3117 121.888 73.8616 121.775C73.4116 121.647 72.9374 121.51 72.4392 121.365C71.957 121.205 71.4909 121.004 71.0408 120.763C70.5908 120.505 70.2211 120.16 69.9318 119.726C69.6586 119.276 69.5219 118.697 69.5219 117.99C69.5219 117.251 69.6987 116.608 70.0524 116.061C70.422 115.515 70.9444 115.089 71.6195 114.783C72.2945 114.478 73.0901 114.325 74.0063 114.325C74.9707 114.325 75.8386 114.494 76.6101 114.832C77.3977 115.169 78.0486 115.675 78.563 116.351L76.6583 118.255C76.3047 117.821 75.9029 117.508 75.4529 117.315C75.0189 117.122 74.5447 117.026 74.0304 117.026C73.5643 117.026 73.2027 117.098 72.9455 117.243C72.7044 117.387 72.5838 117.588 72.5838 117.845C72.5838 118.135 72.7205 118.36 72.9937 118.52C73.283 118.681 73.6527 118.826 74.1027 118.954C74.5528 119.067 75.0189 119.204 75.5011 119.364C75.9993 119.509 76.4655 119.718 76.8994 119.991C77.3495 120.264 77.7111 120.626 77.9844 121.076C78.2737 121.526 78.4183 122.105 78.4183 122.812C78.4183 123.953 78.0085 124.861 77.1887 125.536C76.369 126.195 75.252 126.525 73.8375 126.525Z" fill="black"/>
<path d="M249.421 134.535L244.549 129.65C244.177 129.286 243.99 128.863 243.99 128.381C243.99 127.899 244.172 127.472 244.536 127.099C244.9 126.727 245.327 126.543 245.818 126.548C246.309 126.552 246.736 126.736 247.099 127.099L248.928 128.928V101.933C248.928 101.415 249.101 100.99 249.446 100.658C249.792 100.327 250.228 100.161 250.755 100.161C251.274 100.161 251.706 100.336 252.051 100.686C252.397 101.035 252.569 101.47 252.569 101.988V128.956L254.426 127.099C254.799 126.727 255.226 126.541 255.708 126.541C256.19 126.541 256.617 126.727 256.99 127.099C257.353 127.472 257.535 127.899 257.535 128.381C257.535 128.863 257.353 129.286 256.99 129.65L252.105 134.535C251.732 134.907 251.285 135.093 250.763 135.093C250.241 135.093 249.793 134.907 249.421 134.535Z" fill="#A5C686"/>
<path d="M220.33 117C220.33 117.442 220.506 117.866 220.818 118.179C221.131 118.491 221.555 118.667 221.997 118.667C222.439 118.667 222.863 118.491 223.175 118.179C223.488 117.866 223.663 117.442 223.663 117C223.663 116.558 223.488 116.134 223.175 115.822C222.863 115.509 222.439 115.334 221.997 115.334C221.555 115.334 221.131 115.509 220.818 115.822C220.506 116.134 220.33 116.558 220.33 117Z" stroke="#374B3C" stroke-width="2.66667" stroke-linecap="round" stroke-linejoin="round"/>
<path d="M213.666 117C213.666 119.21 214.544 121.33 216.107 122.893C217.67 124.455 219.789 125.333 221.999 125.333C224.209 125.333 226.329 124.455 227.892 122.893C229.455 121.33 230.333 119.21 230.333 117C230.333 114.79 229.455 112.67 227.892 111.108C226.329 109.545 224.209 108.667 221.999 108.667C219.789 108.667 217.67 109.545 216.107 111.108C214.544 112.67 213.666 114.79 213.666 117Z" stroke="#374B3C" stroke-width="2.66667" stroke-linecap="round" stroke-linejoin="round"/>
<path d="M207 117C207 118.97 207.388 120.92 208.142 122.74C208.896 124.56 210.001 126.214 211.393 127.607C212.786 128.999 214.44 130.104 216.26 130.858C218.08 131.612 220.03 132 222 132C223.97 132 225.92 131.612 227.74 130.858C229.56 130.104 231.214 128.999 232.607 127.607C233.999 126.214 235.104 124.56 235.858 122.74C236.612 120.92 237 118.97 237 117C237 115.03 236.612 113.08 235.858 111.26C235.104 109.44 233.999 107.786 232.607 106.393C231.214 105.001 229.56 103.896 227.74 103.142C225.92 102.388 223.97 102 222 102C220.03 102 218.08 102.388 216.26 103.142C214.44 103.896 212.786 105.001 211.393 106.393C210.001 107.786 208.896 109.44 208.142 111.26C207.388 113.08 207 115.03 207 117Z" stroke="#374B3C" stroke-width="2.66667" stroke-linecap="round" stroke-linejoin="round"/>
<rect x="17.5332" y="152.328" width="244.382" height="3.28765" rx="1.64382" fill="#374B3C"/>
<path d="M27.1287 199.925C25.8911 199.925 24.7419 199.708 23.6811 199.274C22.6203 198.824 21.6881 198.205 20.8844 197.417C20.0968 196.614 19.4861 195.681 19.0521 194.621C18.6342 193.56 18.4253 192.419 18.4253 191.197C18.4253 189.976 18.6342 188.834 19.0521 187.774C19.4861 186.713 20.0968 185.789 20.8844 185.001C21.6881 184.213 22.6123 183.595 23.657 183.145C24.7178 182.694 25.8751 182.469 27.1287 182.469C28.4789 182.469 29.6683 182.694 30.6969 183.145C31.7256 183.579 32.6337 184.181 33.4213 184.953L31.2032 187.171C30.7371 186.656 30.1665 186.255 29.4915 185.965C28.8164 185.676 28.0288 185.531 27.1287 185.531C26.3412 185.531 25.6179 185.668 24.9589 185.941C24.316 186.198 23.7534 186.584 23.2712 187.098C22.7891 187.597 22.4194 188.199 22.1622 188.907C21.905 189.598 21.7765 190.361 21.7765 191.197C21.7765 192.049 21.905 192.82 22.1622 193.512C22.4194 194.203 22.7891 194.805 23.2712 195.32C23.7534 195.818 24.316 196.204 24.9589 196.477C25.6179 196.75 26.3412 196.887 27.1287 196.887C28.0771 196.887 28.8887 196.742 29.5638 196.453C30.2549 196.164 30.8336 195.754 31.2997 195.223L33.5177 197.441C32.7302 198.229 31.814 198.84 30.7693 199.274C29.7245 199.708 28.511 199.925 27.1287 199.925ZM35.2186 199.684V182.252H38.3769V199.684H35.2186ZM45.8043 199.925C44.7435 199.925 43.7872 199.659 42.9353 199.129C42.0834 198.599 41.4164 197.875 40.9342 196.959C40.452 196.043 40.2109 195.014 40.2109 193.873C40.2109 192.716 40.452 191.679 40.9342 190.763C41.4164 189.847 42.0834 189.124 42.9353 188.593C43.7872 188.063 44.7435 187.798 45.8043 187.798C46.6401 187.798 47.3875 187.966 48.0465 188.304C48.7055 188.641 49.2278 189.116 49.6136 189.726C50.0154 190.321 50.2324 190.996 50.2646 191.752V195.947C50.2324 196.718 50.0154 197.401 49.6136 197.996C49.2278 198.591 48.7055 199.065 48.0465 199.418C47.3875 199.756 46.6401 199.925 45.8043 199.925ZM46.3829 197.007C47.267 197.007 47.9822 196.718 48.5287 196.14C49.0752 195.545 49.3484 194.781 49.3484 193.849C49.3484 193.238 49.2198 192.7 48.9626 192.234C48.7216 191.752 48.376 191.382 47.9259 191.125C47.492 190.852 46.9776 190.715 46.3829 190.715C45.8043 190.715 45.29 190.852 44.8399 191.125C44.406 191.382 44.0604 191.752 43.8032 192.234C43.5621 192.7 43.4416 193.238 43.4416 193.849C43.4416 194.476 43.5621 195.03 43.8032 195.513C44.0604 195.979 44.406 196.348 44.8399 196.622C45.29 196.879 45.8043 197.007 46.3829 197.007ZM49.1796 199.684V196.549L49.6859 193.704L49.1796 190.908V188.039H52.3139V199.684H49.1796ZM54.8668 199.684V188.039H58.0251V199.684H54.8668ZM58.0251 193.246L56.7956 192.427C56.9402 190.996 57.3581 189.871 58.0493 189.051C58.7404 188.216 59.7369 187.798 61.0388 187.798C61.6014 187.798 62.1077 187.894 62.5577 188.087C63.0078 188.264 63.4176 188.561 63.7873 188.979L61.8103 191.245C61.6335 191.052 61.4165 190.908 61.1594 190.811C60.9183 190.715 60.637 190.667 60.3155 190.667C59.6405 190.667 59.086 190.884 58.652 191.318C58.2341 191.736 58.0251 192.378 58.0251 193.246ZM64.6556 199.684V188.039H67.8381V199.684H64.6556ZM66.2468 186.158C65.7325 186.158 65.3066 185.989 64.969 185.652C64.6315 185.298 64.4627 184.864 64.4627 184.35C64.4627 183.852 64.6315 183.426 64.969 183.072C65.3066 182.719 65.7325 182.542 66.2468 182.542C66.7772 182.542 67.2032 182.719 67.5246 183.072C67.8622 183.426 68.0309 183.852 68.0309 184.35C68.0309 184.864 67.8622 185.298 67.5246 185.652C67.2032 185.989 66.7772 186.158 66.2468 186.158ZM72.1066 199.684V183.193H75.2649V199.684H72.1066ZM69.3822 190.811V188.039H77.9892V190.811H69.3822ZM83.189 199.78L78.3189 188.039H81.7424L84.9731 197.007H83.8158L87.167 188.039H90.6147L85.4311 199.78H83.189ZM79.9583 204.554L83.5024 197.056L85.4311 199.78L83.3095 204.554H79.9583Z" fill="black"/>
<path d="M249.421 206.912L244.549 202.027C244.177 201.663 243.99 201.24 243.99 200.758C243.99 200.276 244.172 199.849 244.536 199.476C244.9 199.104 245.327 198.92 245.818 198.924C246.309 198.929 246.736 199.113 247.099 199.476L248.928 201.305V174.31C248.928 173.791 249.101 173.366 249.446 173.035C249.792 172.703 250.228 172.538 250.755 172.538C251.274 172.538 251.706 172.713 252.051 173.063C252.397 173.412 252.569 173.846 252.569 174.365V201.333L254.426 199.476C254.799 199.104 255.226 198.918 255.708 198.918C256.19 198.918 256.617 199.104 256.99 199.476C257.353 199.849 257.535 200.276 257.535 200.758C257.535 201.24 257.353 201.663 256.99 202.027L252.105 206.912C251.732 207.284 251.285 207.47 250.763 207.47C250.241 207.47 249.793 207.284 249.421 206.912Z" fill="#A5C686"/>
<path d="M233.889 189.457H237M235.444 187.901V191.012M222.998 177.012H223.61C221.611 178.869 220.326 181.368 219.979 184.073C219.632 186.779 220.243 189.521 221.708 191.822C223.173 194.124 225.398 195.839 227.996 196.671C230.595 197.502 233.402 197.397 235.931 196.373C234.958 198.713 233.369 200.746 231.331 202.253C229.294 203.761 226.885 204.687 224.363 204.934C221.84 205.18 219.298 204.737 217.007 203.652C214.716 202.567 212.763 200.88 211.356 198.772C209.949 196.665 209.14 194.214 209.017 191.683C208.893 189.151 209.459 186.634 210.654 184.399C211.849 182.164 213.629 180.295 215.803 178.992C217.977 177.689 220.464 177.001 222.998 177V177.012ZM230.777 178.568C230.777 179.393 231.105 180.184 231.688 180.768C232.272 181.351 233.063 181.679 233.889 181.679C233.063 181.679 232.272 182.007 231.688 182.59C231.105 183.174 230.777 183.965 230.777 184.79C230.777 183.965 230.449 183.174 229.866 182.59C229.282 182.007 228.491 181.679 227.666 181.679C228.491 181.679 229.282 181.351 229.866 180.768C230.449 180.184 230.777 179.393 230.777 178.568Z" stroke="#374B3C" stroke-width="2.66667" stroke-linecap="round" stroke-linejoin="round"/>
</svg>
