<svg width="1083" height="722" viewBox="0 0 1083 722" fill="none" xmlns="http://www.w3.org/2000/svg">
<rect x="634" y="80.915" width="370" height="261.5" rx="27.5354" fill="#F6F9F2"/>
<path d="M789.834 190.082H848.167M794.001 190.082C795.334 161.982 805.417 151.557 819.001 148.415M819.001 148.415C832.584 151.557 842.667 161.982 844.001 190.082M819.001 148.415C812.967 160.573 810.667 169.603 810.667 190.082M819.001 148.415C825.034 160.573 827.334 169.603 827.334 190.082M819.001 148.415V123.415M819.001 198.415V190.082M798.167 144.248C800.834 141.582 804.455 140.082 808.226 140.082H829.776C833.546 140.082 837.167 141.582 839.834 144.248M814.834 123.415H823.167" stroke="#374B3C" stroke-width="6.66667" stroke-linecap="round" stroke-linejoin="round"/>
<path d="M789.834 190.082H848.167M794.001 190.082C795.334 161.982 805.417 151.557 819.001 148.415M819.001 148.415C832.584 151.557 842.667 161.982 844.001 190.082M819.001 148.415C812.967 160.573 810.667 169.602 810.667 190.082M819.001 148.415C825.034 160.573 827.334 169.602 827.334 190.082" stroke="#A5C686" stroke-width="6.66667" stroke-linecap="round" stroke-linejoin="round"/>
<path d="M708.894 256.415V229.799H714.043V256.415H708.894ZM712.68 245.511V240.93H726.083V245.511H712.68ZM712.68 234.342V229.799H726.726V234.342H712.68ZM729.874 256.415V238.128H734.833V256.415H729.874ZM734.833 246.306L732.902 245.019C733.13 242.772 733.786 241.006 734.871 239.718C735.957 238.406 737.522 237.749 739.566 237.749C740.449 237.749 741.245 237.901 741.951 238.204C742.658 238.481 743.302 238.948 743.882 239.605L740.778 243.164C740.5 242.861 740.159 242.634 739.755 242.482C739.377 242.331 738.935 242.255 738.43 242.255C737.37 242.255 736.499 242.596 735.818 243.277C735.162 243.933 734.833 244.943 734.833 246.306ZM753.474 256.794C751.556 256.794 749.852 256.39 748.363 255.582C746.874 254.749 745.687 253.613 744.804 252.175C743.946 250.736 743.517 249.095 743.517 247.253C743.517 245.435 743.933 243.82 744.766 242.406C745.624 240.968 746.785 239.832 748.249 238.999C749.713 238.141 751.341 237.712 753.133 237.712C754.9 237.712 756.453 238.115 757.79 238.923C759.153 239.706 760.213 240.791 760.971 242.179C761.753 243.542 762.144 245.095 762.144 246.836C762.144 247.164 762.119 247.505 762.069 247.858C762.043 248.187 761.98 248.565 761.879 248.994L746.508 249.032V245.322L759.57 245.284L757.563 246.836C757.513 245.751 757.311 244.842 756.957 244.11C756.629 243.378 756.137 242.823 755.481 242.444C754.85 242.04 754.067 241.838 753.133 241.838C752.149 241.838 751.291 242.066 750.559 242.52C749.827 242.949 749.259 243.567 748.855 244.375C748.476 245.158 748.287 246.092 748.287 247.177C748.287 248.288 748.489 249.259 748.893 250.092C749.322 250.9 749.928 251.531 750.71 251.985C751.493 252.414 752.401 252.629 753.436 252.629C754.37 252.629 755.216 252.477 755.973 252.175C756.73 251.846 757.386 251.367 757.942 250.736L760.857 253.651C759.974 254.686 758.888 255.469 757.601 255.999C756.339 256.529 754.963 256.794 753.474 256.794ZM773.579 256.794C771.661 256.794 769.957 256.39 768.468 255.582C766.979 254.749 765.792 253.613 764.909 252.175C764.051 250.736 763.621 249.095 763.621 247.253C763.621 245.435 764.038 243.82 764.871 242.406C765.729 240.968 766.89 239.832 768.354 238.999C769.818 238.141 771.446 237.712 773.238 237.712C775.005 237.712 776.557 238.115 777.895 238.923C779.258 239.706 780.318 240.791 781.076 242.179C781.858 243.542 782.249 245.095 782.249 246.836C782.249 247.164 782.224 247.505 782.173 247.858C782.148 248.187 782.085 248.565 781.984 248.994L766.613 249.032V245.322L779.675 245.284L777.668 246.836C777.618 245.751 777.416 244.842 777.062 244.11C776.734 243.378 776.242 242.823 775.586 242.444C774.955 242.04 774.172 241.838 773.238 241.838C772.254 241.838 771.396 242.066 770.664 242.52C769.932 242.949 769.364 243.567 768.96 244.375C768.581 245.158 768.392 246.092 768.392 247.177C768.392 248.288 768.594 249.259 768.998 250.092C769.427 250.9 770.033 251.531 770.815 251.985C771.598 252.414 772.506 252.629 773.541 252.629C774.475 252.629 775.321 252.477 776.078 252.175C776.835 251.846 777.491 251.367 778.047 250.736L780.962 253.651C780.078 254.686 778.993 255.469 777.706 255.999C776.444 256.529 775.068 256.794 773.579 256.794ZM796.27 256.415V252.212H803.199C804.436 252.212 805.395 251.834 806.076 251.077C806.783 250.319 807.136 249.423 807.136 248.388C807.136 247.682 806.985 247.038 806.682 246.458C806.379 245.877 805.925 245.423 805.319 245.095C804.739 244.741 804.032 244.564 803.199 244.564H796.27V240.4H802.631C803.691 240.4 804.537 240.135 805.168 239.605C805.824 239.075 806.152 238.28 806.152 237.219C806.152 236.134 805.824 235.326 805.168 234.796C804.537 234.266 803.691 234.001 802.631 234.001H796.27V229.799H803.237C805.004 229.799 806.48 230.127 807.666 230.783C808.878 231.414 809.787 232.26 810.392 233.32C810.998 234.355 811.301 235.49 811.301 236.727C811.301 238.242 810.834 239.554 809.9 240.665C808.992 241.75 807.654 242.558 805.887 243.088L806.114 241.422C808.083 241.977 809.597 242.899 810.658 244.186C811.743 245.448 812.286 246.975 812.286 248.767C812.286 250.181 811.932 251.468 811.225 252.629C810.544 253.765 809.534 254.686 808.197 255.393C806.884 256.074 805.281 256.415 803.388 256.415H796.27ZM792.484 256.415V229.799H797.595V256.415H792.484ZM823.109 256.794C821.443 256.794 819.941 256.377 818.603 255.544C817.265 254.711 816.218 253.575 815.461 252.137C814.703 250.698 814.325 249.083 814.325 247.29C814.325 245.473 814.703 243.845 815.461 242.406C816.218 240.968 817.265 239.832 818.603 238.999C819.941 238.166 821.443 237.749 823.109 237.749C824.421 237.749 825.595 238.014 826.63 238.545C827.664 239.075 828.485 239.819 829.091 240.778C829.722 241.712 830.062 242.772 830.113 243.959V250.547C830.062 251.758 829.722 252.831 829.091 253.765C828.485 254.699 827.664 255.443 826.63 255.999C825.595 256.529 824.421 256.794 823.109 256.794ZM824.017 252.212C825.405 252.212 826.529 251.758 827.387 250.849C828.245 249.916 828.674 248.717 828.674 247.253C828.674 246.293 828.472 245.448 828.068 244.716C827.69 243.959 827.147 243.378 826.44 242.974C825.759 242.545 824.951 242.331 824.017 242.331C823.109 242.331 822.301 242.545 821.594 242.974C820.913 243.378 820.37 243.959 819.966 244.716C819.587 245.448 819.398 246.293 819.398 247.253C819.398 248.237 819.587 249.108 819.966 249.865C820.37 250.597 820.913 251.178 821.594 251.607C822.301 252.011 823.109 252.212 824.017 252.212ZM828.409 256.415V251.493L829.204 247.025L828.409 242.634V238.128H833.331V256.415H828.409ZM837.34 256.415V238.128H842.3V256.415H837.34ZM849.266 256.415V245.625C849.266 244.564 848.926 243.744 848.244 243.164C847.588 242.558 846.768 242.255 845.783 242.255C845.127 242.255 844.534 242.394 844.004 242.671C843.474 242.924 843.057 243.302 842.754 243.807C842.451 244.312 842.3 244.918 842.3 245.625L840.369 244.678C840.369 243.265 840.672 242.04 841.278 241.006C841.909 239.971 842.754 239.176 843.814 238.62C844.875 238.04 846.074 237.749 847.411 237.749C848.673 237.749 849.822 238.04 850.857 238.62C851.892 239.176 852.712 239.971 853.318 241.006C853.923 242.015 854.226 243.239 854.226 244.678V256.415H849.266ZM861.193 256.415V245.625C861.193 244.564 860.852 243.744 860.17 243.164C859.514 242.558 858.694 242.255 857.71 242.255C857.078 242.255 856.485 242.394 855.93 242.671C855.4 242.924 854.984 243.302 854.681 243.807C854.378 244.312 854.226 244.918 854.226 245.625L851.387 244.943C851.488 243.479 851.879 242.217 852.56 241.157C853.242 240.072 854.138 239.239 855.249 238.658C856.359 238.052 857.596 237.749 858.959 237.749C860.322 237.749 861.546 238.04 862.631 238.62C863.717 239.176 864.575 239.983 865.206 241.043C865.837 242.104 866.153 243.366 866.153 244.83V256.415H861.193ZM879.941 256.794C878.629 256.794 877.442 256.516 876.382 255.961C875.322 255.405 874.477 254.648 873.845 253.689C873.214 252.73 872.874 251.657 872.823 250.471V243.959C872.874 242.772 873.214 241.712 873.845 240.778C874.502 239.819 875.36 239.075 876.42 238.545C877.48 238.014 878.654 237.749 879.941 237.749C881.632 237.749 883.147 238.166 884.484 238.999C885.822 239.832 886.87 240.968 887.627 242.406C888.409 243.845 888.801 245.473 888.801 247.29C888.801 249.083 888.409 250.698 887.627 252.137C886.87 253.575 885.822 254.711 884.484 255.544C883.147 256.377 881.632 256.794 879.941 256.794ZM869.794 256.415V229.041H874.754V242.634L873.921 247.025L874.716 251.493V256.415H869.794ZM879.108 252.212C880.017 252.212 880.812 252.011 881.493 251.607C882.2 251.178 882.743 250.597 883.121 249.865C883.525 249.108 883.727 248.237 883.727 247.253C883.727 246.293 883.525 245.448 883.121 244.716C882.743 243.959 882.2 243.378 881.493 242.974C880.787 242.545 879.979 242.331 879.07 242.331C878.162 242.331 877.354 242.545 876.647 242.974C875.966 243.378 875.423 243.959 875.019 244.716C874.641 245.448 874.451 246.293 874.451 247.253C874.451 248.237 874.641 249.108 875.019 249.865C875.423 250.597 875.978 251.178 876.685 251.607C877.392 252.011 878.2 252.212 879.108 252.212ZM900.268 256.794C898.426 256.794 896.76 256.377 895.271 255.544C893.807 254.686 892.633 253.538 891.75 252.099C890.892 250.635 890.462 249.007 890.462 247.215C890.462 245.423 890.892 243.82 891.75 242.406C892.608 240.968 893.782 239.832 895.271 238.999C896.76 238.141 898.413 237.712 900.231 237.712C902.098 237.712 903.764 238.141 905.228 238.999C906.717 239.832 907.891 240.968 908.749 242.406C909.608 243.82 910.037 245.423 910.037 247.215C910.037 249.007 909.608 250.635 908.749 252.099C907.891 253.538 906.717 254.686 905.228 255.544C903.764 256.377 902.111 256.794 900.268 256.794ZM900.231 252.175C901.165 252.175 901.985 251.973 902.692 251.569C903.424 251.14 903.979 250.559 904.357 249.827C904.761 249.07 904.963 248.212 904.963 247.253C904.963 246.293 904.761 245.448 904.357 244.716C903.954 243.984 903.398 243.416 902.692 243.012C901.985 242.583 901.165 242.369 900.231 242.369C899.322 242.369 898.514 242.583 897.807 243.012C897.101 243.416 896.545 243.984 896.142 244.716C895.738 245.448 895.536 246.293 895.536 247.253C895.536 248.212 895.738 249.07 896.142 249.827C896.545 250.559 897.101 251.14 897.807 251.569C898.514 251.973 899.322 252.175 900.231 252.175ZM921.446 256.794C919.603 256.794 917.937 256.377 916.448 255.544C914.984 254.686 913.81 253.538 912.927 252.099C912.069 250.635 911.64 249.007 911.64 247.215C911.64 245.423 912.069 243.82 912.927 242.406C913.785 240.968 914.959 239.832 916.448 238.999C917.937 238.141 919.59 237.712 921.408 237.712C923.276 237.712 924.941 238.141 926.405 238.999C927.895 239.832 929.068 240.968 929.927 242.406C930.785 243.82 931.214 245.423 931.214 247.215C931.214 249.007 930.785 250.635 929.927 252.099C929.068 253.538 927.895 254.686 926.405 255.544C924.941 256.377 923.288 256.794 921.446 256.794ZM921.408 252.175C922.342 252.175 923.162 251.973 923.869 251.569C924.601 251.14 925.156 250.559 925.535 249.827C925.938 249.07 926.14 248.212 926.14 247.253C926.14 246.293 925.938 245.448 925.535 244.716C925.131 243.984 924.575 243.416 923.869 243.012C923.162 242.583 922.342 242.369 921.408 242.369C920.499 242.369 919.691 242.583 918.985 243.012C918.278 243.416 917.723 243.984 917.319 244.716C916.915 245.448 916.713 246.293 916.713 247.253C916.713 248.212 916.915 249.07 917.319 249.827C917.723 250.559 918.278 251.14 918.985 251.569C919.691 251.973 920.499 252.175 921.408 252.175ZM702.164 303.415V276.799H705.799L716.59 294.063H714.507L725.26 276.799H728.894V303.415H723.783V285.62L724.768 285.923L717.271 297.963H713.788L706.291 285.923L707.314 285.62V303.415H702.164ZM741.071 303.794C739.405 303.794 737.903 303.377 736.566 302.544C735.228 301.711 734.18 300.575 733.423 299.137C732.666 297.698 732.287 296.083 732.287 294.29C732.287 292.473 732.666 290.845 733.423 289.406C734.18 287.968 735.228 286.832 736.566 285.999C737.903 285.166 739.405 284.749 741.071 284.749C742.384 284.749 743.557 285.014 744.592 285.545C745.627 286.075 746.447 286.819 747.053 287.778C747.684 288.712 748.025 289.772 748.075 290.959V297.547C748.025 298.758 747.684 299.831 747.053 300.765C746.447 301.699 745.627 302.443 744.592 302.999C743.557 303.529 742.384 303.794 741.071 303.794ZM741.98 299.212C743.368 299.212 744.491 298.758 745.349 297.849C746.208 296.916 746.637 295.717 746.637 294.253C746.637 293.293 746.435 292.448 746.031 291.716C745.652 290.959 745.11 290.378 744.403 289.974C743.721 289.545 742.914 289.331 741.98 289.331C741.071 289.331 740.263 289.545 739.557 289.974C738.875 290.378 738.332 290.959 737.929 291.716C737.55 292.448 737.361 293.293 737.361 294.253C737.361 295.237 737.55 296.108 737.929 296.865C738.332 297.597 738.875 298.178 739.557 298.607C740.263 299.011 741.071 299.212 741.98 299.212ZM746.372 303.415V298.493L747.167 294.025L746.372 289.634V285.128H751.294V303.415H746.372ZM757.991 303.415V277.518H762.951V303.415H757.991ZM753.712 289.482V285.128H767.229V289.482H753.712ZM777.828 303.794C775.96 303.794 774.282 303.377 772.793 302.544C771.304 301.711 770.13 300.575 769.272 299.137C768.413 297.698 767.984 296.083 767.984 294.29C767.984 292.473 768.413 290.845 769.272 289.406C770.13 287.968 771.304 286.832 772.793 285.999C774.307 285.141 775.986 284.712 777.828 284.712C779.267 284.712 780.592 284.977 781.804 285.507C783.015 286.037 784.063 286.794 784.946 287.778L781.766 290.997C781.286 290.467 780.706 290.063 780.024 289.785C779.368 289.507 778.636 289.369 777.828 289.369C776.92 289.369 776.099 289.583 775.367 290.012C774.661 290.416 774.093 290.984 773.664 291.716C773.26 292.423 773.058 293.268 773.058 294.253C773.058 295.212 773.26 296.07 773.664 296.827C774.093 297.559 774.661 298.14 775.367 298.569C776.099 298.973 776.92 299.175 777.828 299.175C778.661 299.175 779.406 299.036 780.062 298.758C780.744 298.455 781.324 298.026 781.804 297.471L785.022 300.689C784.088 301.699 783.015 302.469 781.804 302.999C780.592 303.529 779.267 303.794 777.828 303.794ZM799.757 303.415V292.927C799.757 291.842 799.416 290.959 798.735 290.277C798.053 289.596 797.17 289.255 796.085 289.255C795.378 289.255 794.747 289.406 794.191 289.709C793.636 290.012 793.194 290.441 792.866 290.997C792.563 291.552 792.412 292.196 792.412 292.927L790.481 291.943C790.481 290.504 790.784 289.255 791.39 288.195C791.996 287.109 792.828 286.264 793.889 285.658C794.974 285.052 796.211 284.749 797.599 284.749C798.987 284.749 800.211 285.052 801.271 285.658C802.357 286.264 803.202 287.097 803.808 288.157C804.414 289.217 804.717 290.441 804.717 291.83V303.415H799.757ZM787.452 303.415V276.041H792.412V303.415H787.452ZM815.981 303.794C814.316 303.794 812.814 303.377 811.476 302.544C810.138 301.711 809.091 300.575 808.333 299.137C807.576 297.698 807.198 296.083 807.198 294.29C807.198 292.473 807.576 290.845 808.333 289.406C809.091 287.968 810.138 286.832 811.476 285.999C812.814 285.166 814.316 284.749 815.981 284.749C817.294 284.749 818.468 285.014 819.503 285.545C820.537 286.075 821.358 286.819 821.964 287.778C822.595 288.712 822.935 289.772 822.986 290.959V297.547C822.935 298.758 822.595 299.831 821.964 300.765C821.358 301.699 820.537 302.443 819.503 302.999C818.468 303.529 817.294 303.794 815.981 303.794ZM816.89 299.212C818.278 299.212 819.402 298.758 820.26 297.849C821.118 296.916 821.547 295.717 821.547 294.253C821.547 293.293 821.345 292.448 820.941 291.716C820.563 290.959 820.02 290.378 819.313 289.974C818.632 289.545 817.824 289.331 816.89 289.331C815.981 289.331 815.174 289.545 814.467 289.974C813.786 290.378 813.243 290.959 812.839 291.716C812.46 292.448 812.271 293.293 812.271 294.253C812.271 295.237 812.46 296.108 812.839 296.865C813.243 297.597 813.786 298.178 814.467 298.607C815.174 299.011 815.981 299.212 816.89 299.212ZM821.282 303.415V298.493L822.077 294.025L821.282 289.634V285.128H826.204V303.415H821.282ZM844.499 303.415L835.866 276.799H840.94L847.338 297.282H845.634L851.919 276.799H855.743L862.028 297.282H860.287L866.723 276.799H871.797L863.126 303.415H859.302L852.98 282.97H854.645L848.36 303.415H844.499ZM886.721 303.415V292.927C886.721 291.842 886.38 290.959 885.699 290.277C885.017 289.596 884.134 289.255 883.048 289.255C882.342 289.255 881.711 289.406 881.155 289.709C880.6 290.012 880.158 290.441 879.83 290.997C879.527 291.552 879.376 292.196 879.376 292.927L877.445 291.943C877.445 290.504 877.748 289.255 878.354 288.195C878.959 287.109 879.792 286.264 880.852 285.658C881.938 285.052 883.175 284.749 884.563 284.749C885.951 284.749 887.175 285.052 888.235 285.658C889.321 286.264 890.166 287.097 890.772 288.157C891.378 289.217 891.681 290.441 891.681 291.83V303.415H886.721ZM874.416 303.415V276.041H879.376V303.415H874.416ZM895.297 303.415V285.128H900.295V303.415H895.297ZM897.796 282.175C896.989 282.175 896.32 281.91 895.79 281.38C895.26 280.825 894.995 280.143 894.995 279.335C894.995 278.553 895.26 277.884 895.79 277.329C896.32 276.773 896.989 276.496 897.796 276.496C898.629 276.496 899.298 276.773 899.803 277.329C900.333 277.884 900.598 278.553 900.598 279.335C900.598 280.143 900.333 280.825 899.803 281.38C899.298 281.91 898.629 282.175 897.796 282.175ZM910.595 303.832C909.56 303.832 908.538 303.693 907.528 303.415C906.544 303.137 905.635 302.759 904.802 302.279C903.969 301.774 903.25 301.169 902.644 300.462L905.597 297.471C906.228 298.178 906.96 298.708 907.793 299.061C908.626 299.414 909.548 299.591 910.557 299.591C911.365 299.591 911.971 299.477 912.375 299.25C912.804 299.023 913.018 298.682 913.018 298.228C913.018 297.723 912.791 297.332 912.337 297.054C911.908 296.777 911.34 296.55 910.633 296.373C909.926 296.171 909.182 295.956 908.399 295.729C907.642 295.477 906.91 295.161 906.203 294.783C905.496 294.379 904.916 293.836 904.462 293.155C904.033 292.448 903.818 291.539 903.818 290.429C903.818 289.268 904.096 288.258 904.651 287.4C905.231 286.542 906.052 285.873 907.112 285.393C908.172 284.914 909.421 284.674 910.86 284.674C912.375 284.674 913.738 284.939 914.949 285.469C916.186 285.999 917.208 286.794 918.016 287.854L915.025 290.845C914.47 290.164 913.839 289.671 913.132 289.369C912.45 289.066 911.706 288.914 910.898 288.914C910.166 288.914 909.598 289.028 909.194 289.255C908.816 289.482 908.626 289.798 908.626 290.201C908.626 290.656 908.841 291.009 909.27 291.262C909.724 291.514 910.305 291.741 911.012 291.943C911.718 292.12 912.45 292.334 913.208 292.587C913.99 292.814 914.722 293.142 915.403 293.571C916.11 294 916.678 294.568 917.107 295.275C917.562 295.982 917.789 296.89 917.789 298.001C917.789 299.793 917.145 301.219 915.858 302.279C914.571 303.314 912.816 303.832 910.595 303.832ZM932.416 303.415L925.336 293.988L932.378 285.128H938.095L929.841 295.123L930.031 292.7L938.474 303.415H932.416ZM920.755 303.415V276.041H925.714V303.415H920.755Z" fill="black"/>
</svg>
