<svg width="1083" height="722" viewBox="0 0 1083 722" fill="none" xmlns="http://www.w3.org/2000/svg">
<rect x="92" y="153" width="370" height="261.5" rx="27.5354" fill="#F6F9F2"/>
<path d="M243.664 262.167V203.833C243.664 201.623 244.542 199.504 246.105 197.941C247.668 196.378 249.787 195.5 251.997 195.5H307.831C308.494 195.5 309.13 195.763 309.599 196.232C310.067 196.701 310.331 197.337 310.331 198V252.642" stroke="#374B3C" stroke-width="6.46552" stroke-linecap="round"/>
<path d="M268.664 241.333C268.664 241.333 272.414 228.342 281.164 220.5" stroke="#A5C686" stroke-width="6.46552" stroke-linecap="round" stroke-linejoin="round"/>
<path d="M280.341 234.771L279.783 234.821C276.393 235.137 273.015 234.099 270.387 231.934C267.76 229.768 266.096 226.651 265.758 223.263C265.591 221.59 265.757 219.901 266.246 218.292C266.735 216.684 267.537 215.188 268.606 213.89C269.676 212.593 270.991 211.52 272.476 210.733C273.962 209.946 275.588 209.46 277.262 209.304L289.704 208.138C290.088 208.102 290.47 208.219 290.768 208.464C291.065 208.709 291.253 209.062 291.291 209.446L292.354 220.196C292.528 221.943 292.356 223.707 291.846 225.387C291.335 227.067 290.498 228.629 289.381 229.984C288.265 231.339 286.891 232.459 285.34 233.281C283.788 234.102 282.089 234.609 280.341 234.771Z" stroke="#A5C686" stroke-width="6.46552" stroke-linecap="round" stroke-linejoin="round"/>
<path d="M252 253.834H310.333M252 270.501H310.333" stroke="#374B3C" stroke-width="6.46552" stroke-linecap="round"/>
<path d="M251.997 270.501C249.787 270.501 247.668 269.623 246.105 268.06C244.542 266.497 243.664 264.377 243.664 262.167C243.664 259.957 244.542 257.838 246.105 256.275C247.668 254.712 249.787 253.834 251.997 253.834" stroke="#374B3C" stroke-width="6.46552" stroke-linecap="round" stroke-linejoin="round"/>
<path d="M173.641 328.5V301.884H178.791V328.5H173.641ZM177.428 317.596V313.015H190.83V317.596H177.428ZM177.428 306.427V301.884H191.474V306.427H177.428ZM194.621 328.5V310.213H199.581V328.5H194.621ZM199.581 318.391L197.65 317.104C197.877 314.857 198.534 313.09 199.619 311.803C200.704 310.491 202.269 309.834 204.314 309.834C205.197 309.834 205.992 309.986 206.699 310.289C207.406 310.566 208.049 311.033 208.63 311.69L205.525 315.249C205.248 314.946 204.907 314.719 204.503 314.567C204.124 314.416 203.683 314.34 203.178 314.34C202.118 314.34 201.247 314.681 200.565 315.362C199.909 316.018 199.581 317.028 199.581 318.391ZM218.222 328.879C216.304 328.879 214.6 328.475 213.111 327.667C211.621 326.834 210.435 325.698 209.552 324.26C208.693 322.821 208.264 321.18 208.264 319.338C208.264 317.52 208.681 315.905 209.514 314.491C210.372 313.053 211.533 311.917 212.997 311.084C214.461 310.226 216.089 309.797 217.881 309.797C219.648 309.797 221.2 310.2 222.538 311.008C223.901 311.791 224.961 312.876 225.718 314.264C226.501 315.627 226.892 317.18 226.892 318.921C226.892 319.249 226.867 319.59 226.816 319.943C226.791 320.271 226.728 320.65 226.627 321.079L211.255 321.117V317.407L224.317 317.369L222.311 318.921C222.26 317.836 222.058 316.927 221.705 316.195C221.377 315.463 220.885 314.908 220.228 314.529C219.597 314.125 218.815 313.923 217.881 313.923C216.897 313.923 216.038 314.151 215.307 314.605C214.575 315.034 214.007 315.652 213.603 316.46C213.224 317.243 213.035 318.177 213.035 319.262C213.035 320.372 213.237 321.344 213.641 322.177C214.07 322.985 214.675 323.616 215.458 324.07C216.24 324.499 217.149 324.714 218.184 324.714C219.118 324.714 219.963 324.562 220.721 324.26C221.478 323.931 222.134 323.452 222.689 322.821L225.605 325.736C224.721 326.771 223.636 327.553 222.349 328.084C221.087 328.614 219.711 328.879 218.222 328.879ZM238.327 328.879C236.408 328.879 234.705 328.475 233.215 327.667C231.726 326.834 230.54 325.698 229.656 324.26C228.798 322.821 228.369 321.18 228.369 319.338C228.369 317.52 228.786 315.905 229.619 314.491C230.477 313.053 231.638 311.917 233.102 311.084C234.566 310.226 236.194 309.797 237.986 309.797C239.753 309.797 241.305 310.2 242.643 311.008C244.006 311.791 245.066 312.876 245.823 314.264C246.606 315.627 246.997 317.18 246.997 318.921C246.997 319.249 246.972 319.59 246.921 319.943C246.896 320.271 246.833 320.65 246.732 321.079L231.36 321.117V317.407L244.422 317.369L242.416 318.921C242.365 317.836 242.163 316.927 241.81 316.195C241.482 315.463 240.99 314.908 240.333 314.529C239.702 314.125 238.92 313.923 237.986 313.923C237.002 313.923 236.143 314.151 235.411 314.605C234.679 315.034 234.112 315.652 233.708 316.46C233.329 317.243 233.14 318.177 233.14 319.262C233.14 320.372 233.342 321.344 233.746 322.177C234.175 322.985 234.78 323.616 235.563 324.07C236.345 324.499 237.254 324.714 238.289 324.714C239.223 324.714 240.068 324.562 240.826 324.26C241.583 323.931 242.239 323.452 242.794 322.821L245.71 325.736C244.826 326.771 243.741 327.553 242.454 328.084C241.192 328.614 239.816 328.879 238.327 328.879ZM257.232 328.5V301.884H260.867L271.657 319.148H269.575L280.327 301.884H283.962V328.5H278.851V310.705L279.835 311.008L272.338 323.048H268.855L261.359 311.008L262.381 310.705V328.5H257.232ZM296.138 328.879C294.472 328.879 292.971 328.462 291.633 327.629C290.295 326.796 289.248 325.66 288.49 324.222C287.733 322.783 287.355 321.168 287.355 319.375C287.355 317.558 287.733 315.93 288.49 314.491C289.248 313.053 290.295 311.917 291.633 311.084C292.971 310.251 294.472 309.834 296.138 309.834C297.451 309.834 298.625 310.099 299.659 310.63C300.694 311.16 301.515 311.904 302.12 312.863C302.751 313.797 303.092 314.857 303.143 316.044V322.632C303.092 323.843 302.751 324.916 302.12 325.85C301.515 326.784 300.694 327.528 299.659 328.084C298.625 328.614 297.451 328.879 296.138 328.879ZM297.047 324.297C298.435 324.297 299.559 323.843 300.417 322.934C301.275 322 301.704 320.802 301.704 319.338C301.704 318.378 301.502 317.533 301.098 316.801C300.72 316.044 300.177 315.463 299.47 315.059C298.789 314.63 297.981 314.416 297.047 314.416C296.138 314.416 295.331 314.63 294.624 315.059C293.942 315.463 293.4 316.044 292.996 316.801C292.617 317.533 292.428 318.378 292.428 319.338C292.428 320.322 292.617 321.193 292.996 321.95C293.4 322.682 293.942 323.263 294.624 323.692C295.331 324.095 296.138 324.297 297.047 324.297ZM301.439 328.5V323.578L302.234 319.11L301.439 314.719V310.213H306.361V328.5H301.439ZM313.058 328.5V302.603H318.018V328.5H313.058ZM308.78 314.567V310.213H322.296V314.567H308.78ZM332.896 328.879C331.028 328.879 329.349 328.462 327.86 327.629C326.371 326.796 325.197 325.66 324.339 324.222C323.481 322.783 323.052 321.168 323.052 319.375C323.052 317.558 323.481 315.93 324.339 314.491C325.197 313.053 326.371 311.917 327.86 311.084C329.375 310.226 331.053 309.797 332.896 309.797C334.334 309.797 335.66 310.062 336.871 310.592C338.083 311.122 339.13 311.879 340.014 312.863L336.833 316.082C336.354 315.551 335.773 315.148 335.092 314.87C334.435 314.592 333.703 314.453 332.896 314.453C331.987 314.453 331.167 314.668 330.435 315.097C329.728 315.501 329.16 316.069 328.731 316.801C328.327 317.508 328.125 318.353 328.125 319.338C328.125 320.297 328.327 321.155 328.731 321.912C329.16 322.644 329.728 323.225 330.435 323.654C331.167 324.058 331.987 324.26 332.896 324.26C333.729 324.26 334.473 324.121 335.13 323.843C335.811 323.54 336.392 323.111 336.871 322.556L340.089 325.774C339.155 326.784 338.083 327.553 336.871 328.084C335.66 328.614 334.334 328.879 332.896 328.879ZM354.824 328.5V318.012C354.824 316.927 354.484 316.044 353.802 315.362C353.121 314.681 352.237 314.34 351.152 314.34C350.445 314.34 349.814 314.491 349.259 314.794C348.704 315.097 348.262 315.526 347.934 316.082C347.631 316.637 347.479 317.28 347.479 318.012L345.548 317.028C345.548 315.589 345.851 314.34 346.457 313.28C347.063 312.194 347.896 311.349 348.956 310.743C350.041 310.137 351.278 309.834 352.666 309.834C354.055 309.834 355.279 310.137 356.339 310.743C357.424 311.349 358.27 312.182 358.876 313.242C359.481 314.302 359.784 315.526 359.784 316.914V328.5H354.824ZM342.52 328.5V301.126H347.479V328.5H342.52ZM371.049 328.879C369.383 328.879 367.881 328.462 366.543 327.629C365.206 326.796 364.158 325.66 363.401 324.222C362.644 322.783 362.265 321.168 362.265 319.375C362.265 317.558 362.644 315.93 363.401 314.491C364.158 313.053 365.206 311.917 366.543 311.084C367.881 310.251 369.383 309.834 371.049 309.834C372.361 309.834 373.535 310.099 374.57 310.63C375.605 311.16 376.425 311.904 377.031 312.863C377.662 313.797 378.003 314.857 378.053 316.044V322.632C378.003 323.843 377.662 324.916 377.031 325.85C376.425 326.784 375.605 327.528 374.57 328.084C373.535 328.614 372.361 328.879 371.049 328.879ZM371.958 324.297C373.346 324.297 374.469 323.843 375.327 322.934C376.185 322 376.614 320.802 376.614 319.338C376.614 318.378 376.413 317.533 376.009 316.801C375.63 316.044 375.087 315.463 374.381 315.059C373.699 314.63 372.891 314.416 371.958 314.416C371.049 314.416 370.241 314.63 369.534 315.059C368.853 315.463 368.31 316.044 367.906 316.801C367.528 317.533 367.338 318.378 367.338 319.338C367.338 320.322 367.528 321.193 367.906 321.95C368.31 322.682 368.853 323.263 369.534 323.692C370.241 324.095 371.049 324.297 371.958 324.297ZM376.349 328.5V323.578L377.144 319.11L376.349 314.719V310.213H381.271V328.5H376.349ZM162.014 364.369V360.356H168.185C169.447 360.356 170.419 360.04 171.101 359.409C171.807 358.753 172.161 357.857 172.161 356.721C172.161 355.686 171.807 354.828 171.101 354.146C170.419 353.44 169.447 353.086 168.185 353.086H162.014V348.884H168.64C170.356 348.884 171.858 349.224 173.145 349.906C174.458 350.562 175.467 351.471 176.174 352.632C176.906 353.793 177.272 355.131 177.272 356.645C177.272 358.21 176.906 359.573 176.174 360.734C175.467 361.87 174.458 362.766 173.145 363.422C171.833 364.053 170.306 364.369 168.564 364.369H162.014ZM158.228 375.5V348.884H163.377V375.5H158.228ZM172.766 375.5L163.983 363.99L168.715 362.514L179.014 375.5H172.766ZM189.248 375.879C187.329 375.879 185.626 375.475 184.136 374.667C182.647 373.834 181.461 372.698 180.577 371.26C179.719 369.821 179.29 368.18 179.29 366.338C179.29 364.52 179.707 362.905 180.54 361.491C181.398 360.053 182.559 358.917 184.023 358.084C185.487 357.226 187.115 356.797 188.907 356.797C190.674 356.797 192.226 357.2 193.564 358.008C194.927 358.791 195.987 359.876 196.744 361.264C197.527 362.627 197.918 364.18 197.918 365.921C197.918 366.249 197.893 366.59 197.842 366.943C197.817 367.271 197.754 367.65 197.653 368.079L182.281 368.117V364.407L195.343 364.369L193.337 365.921C193.286 364.836 193.084 363.927 192.731 363.195C192.403 362.463 191.911 361.908 191.254 361.529C190.623 361.125 189.841 360.923 188.907 360.923C187.923 360.923 187.064 361.151 186.332 361.605C185.6 362.034 185.032 362.652 184.629 363.46C184.25 364.243 184.061 365.177 184.061 366.262C184.061 367.372 184.263 368.344 184.666 369.177C185.096 369.985 185.701 370.616 186.484 371.07C187.266 371.499 188.175 371.714 189.21 371.714C190.144 371.714 190.989 371.562 191.746 371.26C192.504 370.931 193.16 370.452 193.715 369.821L196.631 372.736C195.747 373.771 194.662 374.553 193.375 375.084C192.112 375.614 190.737 375.879 189.248 375.879ZM209.239 375.879C207.371 375.879 205.693 375.462 204.203 374.629C202.714 373.796 201.541 372.66 200.682 371.222C199.824 369.783 199.395 368.168 199.395 366.375C199.395 364.558 199.824 362.93 200.682 361.491C201.541 360.053 202.714 358.917 204.203 358.084C205.718 357.226 207.396 356.797 209.239 356.797C210.678 356.797 212.003 357.062 213.214 357.592C214.426 358.122 215.473 358.879 216.357 359.863L213.177 363.082C212.697 362.551 212.116 362.148 211.435 361.87C210.779 361.592 210.047 361.453 209.239 361.453C208.33 361.453 207.51 361.668 206.778 362.097C206.071 362.501 205.503 363.069 205.074 363.801C204.67 364.508 204.468 365.353 204.468 366.338C204.468 367.297 204.67 368.155 205.074 368.912C205.503 369.644 206.071 370.225 206.778 370.654C207.51 371.058 208.33 371.26 209.239 371.26C210.072 371.26 210.816 371.121 211.473 370.843C212.154 370.54 212.735 370.111 213.214 369.556L216.433 372.774C215.499 373.784 214.426 374.553 213.214 375.084C212.003 375.614 210.678 375.879 209.239 375.879ZM218.863 375.5V357.213H223.86V375.5H218.863ZM221.362 354.26C220.554 354.26 219.885 353.995 219.355 353.465C218.825 352.909 218.56 352.228 218.56 351.42C218.56 350.638 218.825 349.969 219.355 349.414C219.885 348.858 220.554 348.581 221.362 348.581C222.195 348.581 222.863 348.858 223.368 349.414C223.898 349.969 224.163 350.638 224.163 351.42C224.163 352.228 223.898 352.909 223.368 353.465C222.863 353.995 222.195 354.26 221.362 354.26ZM238.022 375.879C236.71 375.879 235.524 375.614 234.463 375.084C233.403 374.528 232.558 373.784 231.927 372.85C231.296 371.916 230.955 370.843 230.904 369.632V363.157C230.955 361.946 231.296 360.873 231.927 359.939C232.583 358.98 233.429 358.223 234.463 357.667C235.524 357.112 236.71 356.834 238.022 356.834C239.713 356.834 241.228 357.251 242.566 358.084C243.903 358.917 244.951 360.053 245.708 361.491C246.491 362.93 246.882 364.558 246.882 366.375C246.882 368.168 246.491 369.783 245.708 371.222C244.951 372.66 243.903 373.796 242.566 374.629C241.228 375.462 239.713 375.879 238.022 375.879ZM227.876 383.148V357.213H232.835V362.021L232.002 366.451L232.797 370.881V383.148H227.876ZM237.152 371.297C238.06 371.297 238.868 371.095 239.575 370.692C240.281 370.263 240.824 369.682 241.203 368.95C241.607 368.193 241.808 367.322 241.808 366.338C241.808 365.378 241.607 364.533 241.203 363.801C240.824 363.044 240.281 362.463 239.575 362.059C238.868 361.63 238.06 361.416 237.152 361.416C236.268 361.416 235.473 361.63 234.766 362.059C234.06 362.463 233.504 363.044 233.1 363.801C232.722 364.533 232.532 365.378 232.532 366.338C232.532 367.322 232.722 368.193 233.1 368.95C233.504 369.682 234.047 370.263 234.728 370.692C235.435 371.095 236.243 371.297 237.152 371.297ZM258.501 375.879C256.583 375.879 254.879 375.475 253.39 374.667C251.901 373.834 250.714 372.698 249.831 371.26C248.973 369.821 248.544 368.18 248.544 366.338C248.544 364.52 248.96 362.905 249.793 361.491C250.651 360.053 251.812 358.917 253.276 358.084C254.74 357.226 256.368 356.797 258.16 356.797C259.927 356.797 261.48 357.2 262.817 358.008C264.18 358.791 265.24 359.876 265.998 361.264C266.78 362.627 267.171 364.18 267.171 365.921C267.171 366.249 267.146 366.59 267.096 366.943C267.07 367.271 267.007 367.65 266.906 368.079L251.535 368.117V364.407L264.597 364.369L262.59 365.921C262.54 364.836 262.338 363.927 261.984 363.195C261.656 362.463 261.164 361.908 260.508 361.529C259.877 361.125 259.094 360.923 258.16 360.923C257.176 360.923 256.318 361.151 255.586 361.605C254.854 362.034 254.286 362.652 253.882 363.46C253.503 364.243 253.314 365.177 253.314 366.262C253.314 367.372 253.516 368.344 253.92 369.177C254.349 369.985 254.955 370.616 255.737 371.07C256.52 371.499 257.428 371.714 258.463 371.714C259.397 371.714 260.243 371.562 261 371.26C261.757 370.931 262.413 370.452 262.969 369.821L265.884 372.736C265.001 373.771 263.915 374.553 262.628 375.084C261.366 375.614 259.99 375.879 258.501 375.879ZM285.622 375.879C283.704 375.879 282 375.475 280.511 374.667C279.022 373.834 277.835 372.698 276.952 371.26C276.094 369.821 275.665 368.18 275.665 366.338C275.665 364.52 276.081 362.905 276.914 361.491C277.772 360.053 278.933 358.917 280.397 358.084C281.861 357.226 283.489 356.797 285.281 356.797C287.048 356.797 288.601 357.2 289.938 358.008C291.301 358.791 292.361 359.876 293.119 361.264C293.901 362.627 294.292 364.18 294.292 365.921C294.292 366.249 294.267 366.59 294.217 366.943C294.191 367.271 294.128 367.65 294.027 368.079L278.656 368.117V364.407L291.718 364.369L289.711 365.921C289.661 364.836 289.459 363.927 289.105 363.195C288.777 362.463 288.285 361.908 287.629 361.529C286.998 361.125 286.215 360.923 285.281 360.923C284.297 360.923 283.439 361.151 282.707 361.605C281.975 362.034 281.407 362.652 281.003 363.46C280.624 364.243 280.435 365.177 280.435 366.262C280.435 367.372 280.637 368.344 281.041 369.177C281.47 369.985 282.076 370.616 282.858 371.07C283.641 371.499 284.549 371.714 285.584 371.714C286.518 371.714 287.364 371.562 288.121 371.26C288.878 370.931 289.534 370.452 290.09 369.821L293.005 372.736C292.122 373.771 291.036 374.553 289.749 375.084C288.487 375.614 287.111 375.879 285.622 375.879ZM297.721 368.079V363.574H310.821V368.079H297.721ZM319.147 375.5V371.297H326.075C327.312 371.297 328.271 370.919 328.953 370.162C329.66 369.404 330.013 368.508 330.013 367.473C330.013 366.767 329.861 366.123 329.559 365.543C329.256 364.962 328.801 364.508 328.196 364.18C327.615 363.826 326.908 363.649 326.075 363.649H319.147V359.485H325.507C326.568 359.485 327.413 359.22 328.044 358.69C328.7 358.16 329.029 357.364 329.029 356.304C329.029 355.219 328.7 354.411 328.044 353.881C327.413 353.351 326.568 353.086 325.507 353.086H319.147V348.884H326.113C327.88 348.884 329.357 349.212 330.543 349.868C331.755 350.499 332.663 351.345 333.269 352.405C333.875 353.44 334.178 354.575 334.178 355.812C334.178 357.327 333.711 358.639 332.777 359.75C331.868 360.835 330.53 361.643 328.763 362.173L328.991 360.507C330.959 361.062 332.474 361.984 333.534 363.271C334.619 364.533 335.162 366.06 335.162 367.852C335.162 369.266 334.809 370.553 334.102 371.714C333.42 372.85 332.411 373.771 331.073 374.478C329.761 375.159 328.158 375.5 326.265 375.5H319.147ZM315.361 375.5V348.884H320.472V375.5H315.361ZM346.932 375.879C345.089 375.879 343.423 375.462 341.934 374.629C340.47 373.771 339.296 372.623 338.413 371.184C337.555 369.72 337.126 368.092 337.126 366.3C337.126 364.508 337.555 362.905 338.413 361.491C339.271 360.053 340.445 358.917 341.934 358.084C343.423 357.226 345.076 356.797 346.894 356.797C348.762 356.797 350.427 357.226 351.891 358.084C353.381 358.917 354.554 360.053 355.412 361.491C356.271 362.905 356.7 364.508 356.7 366.3C356.7 368.092 356.271 369.72 355.412 371.184C354.554 372.623 353.381 373.771 351.891 374.629C350.427 375.462 348.774 375.879 346.932 375.879ZM346.894 371.26C347.828 371.26 348.648 371.058 349.355 370.654C350.087 370.225 350.642 369.644 351.021 368.912C351.424 368.155 351.626 367.297 351.626 366.338C351.626 365.378 351.424 364.533 351.021 363.801C350.617 363.069 350.061 362.501 349.355 362.097C348.648 361.668 347.828 361.453 346.894 361.453C345.985 361.453 345.177 361.668 344.471 362.097C343.764 362.501 343.209 363.069 342.805 363.801C342.401 364.533 342.199 365.378 342.199 366.338C342.199 367.297 342.401 368.155 342.805 368.912C343.209 369.644 343.764 370.225 344.471 370.654C345.177 371.058 345.985 371.26 346.894 371.26ZM368.109 375.879C366.266 375.879 364.6 375.462 363.111 374.629C361.647 373.771 360.473 372.623 359.59 371.184C358.732 369.72 358.303 368.092 358.303 366.3C358.303 364.508 358.732 362.905 359.59 361.491C360.448 360.053 361.622 358.917 363.111 358.084C364.6 357.226 366.253 356.797 368.071 356.797C369.939 356.797 371.605 357.226 373.068 358.084C374.558 358.917 375.731 360.053 376.59 361.491C377.448 362.905 377.877 364.508 377.877 366.3C377.877 368.092 377.448 369.72 376.59 371.184C375.731 372.623 374.558 373.771 373.068 374.629C371.605 375.462 369.951 375.879 368.109 375.879ZM368.071 371.26C369.005 371.26 369.825 371.058 370.532 370.654C371.264 370.225 371.819 369.644 372.198 368.912C372.602 368.155 372.803 367.297 372.803 366.338C372.803 365.378 372.602 364.533 372.198 363.801C371.794 363.069 371.239 362.501 370.532 362.097C369.825 361.668 369.005 361.453 368.071 361.453C367.162 361.453 366.354 361.668 365.648 362.097C364.941 362.501 364.386 363.069 363.982 363.801C363.578 364.533 363.376 365.378 363.376 366.338C363.376 367.297 363.578 368.155 363.982 368.912C364.386 369.644 364.941 370.225 365.648 370.654C366.354 371.058 367.162 371.26 368.071 371.26ZM392.353 375.5L385.273 366.073L392.315 357.213H398.032L389.778 367.208L389.967 364.785L398.41 375.5H392.353ZM380.691 375.5V348.126H385.651V375.5H380.691Z" fill="black"/>
</svg>
